<?xml version="1.0" encoding="UTF-8"?>
<svg xmlns="http://www.w3.org/2000/svg" xmlns:xlink="http://www.w3.org/1999/xlink" viewBox="0 0 160 160" width="160px" height="160px">
<g id="surface24034317">
<path style=" stroke:none;fill-rule:nonzero;fill:rgb(100%,100%,100%);fill-opacity:1;" d="M 141.023438 21.972656 C 139.667969 22.03125 138.3125 22.394531 137.074219 22.875 L 137.070312 22.875 C 135.863281 23.347656 128.101562 26.5625 116.785156 31.257812 C 105.46875 35.953125 90.765625 42.066406 76.183594 48.128906 C 47.023438 60.253906 18.367188 72.183594 18.367188 72.183594 L 18.496094 72.136719 C 18.496094 72.136719 16.898438 72.660156 15.296875 73.742188 C 14.496094 74.28125 13.65625 74.972656 12.992188 75.933594 C 12.328125 76.894531 11.859375 78.207031 12.039062 79.617188 C 12.363281 82.160156 14.097656 83.824219 15.527344 84.824219 C 16.957031 85.824219 18.332031 86.296875 18.332031 86.296875 L 18.347656 86.304688 L 46.375 95.570312 C 46.835938 97.175781 54.328125 123.261719 56.09375 128.769531 C 57.015625 131.652344 57.871094 133.253906 58.671875 134.261719 C 59.070312 134.765625 59.46875 135.125 59.863281 135.367188 C 60.035156 135.472656 60.203125 135.542969 60.367188 135.605469 C 60.394531 135.617188 60.421875 135.636719 60.449219 135.644531 C 60.503906 135.664062 60.535156 135.664062 60.605469 135.679688 C 63.246094 136.65625 65.476562 134.953125 65.476562 134.953125 L 65.539062 134.90625 L 84.753906 118 L 113.171875 140.789062 L 113.421875 140.898438 C 117.980469 142.863281 121.75 141.785156 123.941406 140.054688 C 126.132812 138.324219 127.019531 136.0625 127.019531 136.0625 L 127.089844 135.886719 L 147.589844 32.195312 C 148.09375 29.976562 148.144531 28.117188 147.707031 26.515625 C 147.269531 24.917969 146.257812 23.617188 145 22.886719 C 143.742188 22.15625 142.378906 21.914062 141.023438 21.972656 Z M 141.132812 26.042969 C 141.929688 26.007812 142.601562 26.117188 142.996094 26.347656 C 143.390625 26.578125 143.648438 26.839844 143.847656 27.566406 C 144.046875 28.292969 144.09375 29.519531 143.6875 31.308594 L 143.679688 31.335938 L 123.261719 134.625 C 123.230469 134.695312 122.707031 135.929688 121.460938 136.914062 C 120.207031 137.90625 118.496094 138.636719 115.15625 137.253906 L 69.476562 100.621094 C 69.09375 100.21875 68.558594 99.992188 68 100 C 66.90625 99.988281 66.003906 100.855469 65.976562 101.949219 L 60.769531 129.847656 C 60.503906 129.234375 60.214844 128.515625 59.90625 127.546875 C 58.292969 122.519531 51.046875 97.351562 50.332031 94.871094 L 122.027344 48.453125 C 122.238281 49.367188 123.0625 50.011719 124 50 C 124.609375 50.007812 125.191406 49.734375 125.578125 49.261719 C 125.960938 48.785156 126.109375 48.164062 125.976562 47.566406 C 126.03125 46.953125 125.976562 46.351562 125.710938 45.753906 C 125.277344 44.789062 124.257812 44.199219 123.53125 44.0625 C 122.078125 43.789062 121.132812 44.316406 121.132812 44.316406 L 120.933594 44.390625 L 47.714844 91.800781 L 19.652344 82.523438 L 19.644531 82.519531 C 19.636719 82.515625 18.753906 82.199219 17.816406 81.542969 C 16.875 80.882812 16.125 80.03125 16.007812 79.113281 C 15.96875 78.792969 16.027344 78.574219 16.28125 78.210938 C 16.535156 77.847656 17.003906 77.414062 17.535156 77.054688 C 18.601562 76.335938 19.777344 75.925781 19.777344 75.925781 L 19.839844 75.902344 L 19.90625 75.875 C 19.90625 75.875 48.558594 63.945312 77.71875 51.820312 C 92.300781 45.757812 107.007812 39.648438 118.320312 34.953125 C 129.632812 30.257812 137.710938 26.917969 138.523438 26.601562 C 139.414062 26.253906 140.335938 26.078125 141.132812 26.042969 Z M 118.398438 51.398438 L 116.796875 52.203125 L 116.480469 53.96875 L 117.707031 55.277344 L 118.398438 55.398438 L 120 54.597656 L 120.316406 52.832031 L 119.09375 51.523438 Z M 112.800781 56.800781 L 111.199219 57.601562 L 110.882812 59.367188 L 112.105469 60.675781 L 112.800781 60.800781 L 114.402344 59.996094 L 114.71875 58.234375 L 113.492188 56.925781 Z M 107.199219 62.199219 L 105.597656 63.003906 L 105.28125 64.765625 L 106.503906 66.074219 L 107.199219 66.199219 L 108.800781 65.398438 L 109.117188 63.632812 L 107.894531 62.324219 Z M 101.601562 67.601562 L 99.996094 68.402344 L 99.683594 70.167969 L 100.90625 71.476562 L 101.601562 71.601562 L 103.203125 70.796875 L 103.519531 69.035156 L 102.292969 67.722656 Z M 96 73 L 94.398438 73.804688 L 94.082031 75.566406 L 95.304688 76.875 L 96 77 L 97.601562 76.199219 L 97.917969 74.433594 L 96.695312 73.125 Z M 90.398438 78.398438 L 88.796875 79.203125 L 88.480469 80.96875 L 89.707031 82.277344 L 90.398438 82.398438 L 92.003906 81.597656 L 92.316406 79.832031 L 91.09375 78.523438 Z M 84.800781 83.800781 L 83.199219 84.601562 L 82.882812 86.367188 L 84.105469 87.675781 L 84.800781 87.800781 L 86.402344 86.996094 L 86.71875 85.234375 L 85.492188 83.925781 Z M 79.199219 89.199219 L 77.597656 90.003906 L 77.28125 91.765625 L 78.507812 93.074219 L 79.199219 93.199219 L 80.800781 92.398438 L 81.117188 90.632812 L 79.894531 89.324219 Z M 73.601562 94.601562 L 71.996094 95.402344 L 71.683594 97.167969 L 72.90625 98.476562 L 73.601562 98.601562 L 75.203125 97.796875 L 75.519531 96.03125 L 74.292969 94.722656 Z M 69.351562 105.648438 L 81.589844 115.460938 L 64.757812 130.265625 Z M 69.351562 105.648438 "/>
</g>
</svg>
